<?xml version="1.0" encoding="UTF-8" standalone="no"?>
<svg width="33px" height="33px" viewBox="0 0 33 33" version="1.1" xmlns="http://www.w3.org/2000/svg" xmlns:xlink="http://www.w3.org/1999/xlink">
    <!-- Generator: Sketch 3.8.1 (29687) - http://www.bohemiancoding.com/sketch -->
    <title>icon/about</title>
    <desc>Created with Sketch.</desc>
    <defs>
        <polygon id="path-1" points="0.174108651 11.0049305 10.4583937 11.0049305 10.4583937 0.0916426714 0.174108651 0.0916426714 0.174108651 11.0049305"></polygon>
    </defs>
    <g id="Page-1" stroke="none" stroke-width="1" fill="none" fill-rule="evenodd">
        <g id="我的" transform="translate(-22.000000, -321.000000)">
            <g id="icon/about" transform="translate(23.000000, 322.000000)">
                <circle id="Oval-3-Copy-7" stroke="#979797" cx="15.5" cy="15.5" r="15.5"></circle>
                <g id="Page-1" transform="translate(7.000000, 7.000000)">
                    <path d="M0,4.73460511 L1.1874675,4.73957508 L2.48551681,4.73957508 L2.48551681,2.65165576 C2.48551681,2.5510139 2.50575168,2.45037203 2.54089646,2.3596701 C2.5811887,2.26914567 2.63656835,2.18359121 2.70188794,2.11827163 C2.76738503,2.04780457 2.84779202,1.99242492 2.93831645,1.95728014 C3.02387091,1.92195787 3.11954281,1.90190049 3.22018467,1.90190049 L8.27677275,1.90190049 C8.37741461,1.90190049 8.47290901,1.92195787 8.55846347,1.95728014 C8.6491654,1.99242492 8.72957239,2.04780457 8.79506948,2.11827163 C8.86535903,2.18359121 8.92073868,2.26914567 8.95606096,2.3596701 C8.99120574,2.45037203 9.01144061,2.5510139 9.01144061,2.65165576 L9.01144061,5.25290184 L10.2590802,5.25290184 L10.2590802,2.65165576 C10.2590802,2.37990498 10.2088481,2.1232416 10.1082062,1.88681309 C10.0125343,1.64523711 9.86663021,1.42886598 9.68558135,1.24781712 C9.49938503,1.0616208 9.2830139,0.915716719 9.04161542,0.820044823 C8.80500941,0.724550426 8.54852353,0.669170775 8.27677275,0.669170775 L3.22018467,0.669170775 C2.94843389,0.669170775 2.69177051,0.724550426 2.455342,0.820044823 C2.21376602,0.915716719 1.99757239,1.0616208 1.81634603,1.24781712 C1.63014971,1.42886598 1.48424563,1.64523711 1.38875123,1.88681309 C1.29307934,2.1232416 1.23769969,2.37990498 1.23769969,2.65165576 L1.23769969,3.47667055 L0,3.47667055 L0,4.73460511 Z" id="Fill-1" fill="#979797"></path>
                    <polygon id="Fill-3" fill="#979797" points="12.4327493 14.0880861 12.4327493 1.78120126 13.7861782 1.78120126 13.7861782 14.4755661 12.4327493 14.4755661"></polygon>
                    <path d="M14.7824439,17.1723776 L12.7094345,17.1723776 L12.7094345,15.8239186 L14.7824439,15.8239186 C15.0541947,15.8239186 15.2805058,15.7183068 15.4414973,15.5471978 C15.6177537,15.3610015 15.718218,15.0943982 15.718218,14.7974426 L15.718218,7.09995518e-05 L17.066677,7.09995518e-05 L17.066677,14.7974426 C17.066677,15.4517035 16.8201311,16.0504072 16.4076237,16.478002 C16.0000862,16.9107442 15.4315573,17.1723776 14.7824439,17.1723776" id="Fill-5" fill="#979797"></path>
                    <g id="Group-9" transform="translate(0.887494, 6.167447)">
                        <mask id="mask-2" fill="white">
                            <use xlink:href="#path-1"></use>
                        </mask>
                        <g id="Clip-8"></g>
                        <path d="M7.52007727,6.9143446 L3.79686078,6.9143446 L3.79686078,5.56091564 L7.52007727,5.56091564 C7.71639104,5.56091564 7.89246992,5.48547862 8.01813913,5.35963191 C8.14398584,5.23893268 8.21942286,5.06782376 8.21942286,4.87665746 L8.21942286,2.12435984 C8.21942286,1.93319355 8.14398584,1.76208463 8.01813913,1.64138539 C7.89246992,1.51553868 7.71639104,1.44010166 7.52007727,1.44010166 L2.20682582,1.44010166 C2.01565952,1.44010166 1.84455061,1.51553868 1.72385137,1.63641542 C1.6081221,1.75711466 1.52753761,1.77717203 1.52753761,2.12435984 L1.52753761,8.63004877 C1.52753761,8.91191699 1.63829691,9.16840287 1.82449323,9.35459919 C2.01068956,9.54079552 2.2723229,9.65652479 2.55401363,9.65652479 L10.4583937,9.65652479 L10.4583937,11.0049838 L2.55401363,11.0049838 C1.89496029,11.0049838 1.30122654,10.7433504 0.868484267,10.3106082 C0.440889467,9.88283586 0.174108651,9.28927961 0.174108651,8.63004877 L0.174108651,2.12435984 C0.174108651,1.5608009 0.455976871,1.02759426 0.818252084,0.66531905 C1.1954372,0.287956432 1.91998763,0.0916426714 2.4634892,0.0916426714 L7.52007727,0.0916426714 C8.09375365,0.0916426714 8.60690291,0.312983774 8.9741481,0.675258987 C9.34654074,1.04268167 9.56788185,1.55583093 9.56788185,2.12435984 L9.56788185,4.87665746 C9.56788185,5.45015634 9.34654074,5.95833563 8.9741481,6.32558082 C8.60690291,6.68785603 8.09375365,6.9143446 7.52007727,6.9143446" id="Fill-7" fill="#979797" mask="url(#mask-2)"></path>
                    </g>
                </g>
            </g>
        </g>
    </g>
</svg>