<?xml version="1.0" encoding="UTF-8" standalone="no"?>
<svg width="35px" height="35px" viewBox="0 0 35 35" version="1.1" xmlns="http://www.w3.org/2000/svg" xmlns:xlink="http://www.w3.org/1999/xlink">
    <!-- Generator: Sketch 3.8.1 (29687) - http://www.bohemiancoding.com/sketch -->
    <title>icon/artist</title>
    <desc>Created with Sketch.</desc>
    <defs></defs>
    <g id="Page-1" stroke="none" stroke-width="1" fill="none" fill-rule="evenodd">
        <g id="首页" transform="translate(-169.000000, -606.000000)">
            <g id="icon/artist" transform="translate(170.000000, 607.000000)">
                <circle id="Oval-46-Copy-2" stroke="#4A4A4A" cx="16.5" cy="16.5" r="16.5"></circle>
                <path d="M26.5339362,9.57920766 L17.3453509,18.5181299 L16.3336506,17.5341134 L25.5229601,8.59519124 C25.8024993,8.32332013 26.2551211,8.32332013 26.5339362,8.59519124 C26.8134754,8.86706234 26.8134754,9.30733655 26.5339362,9.57920766 L26.5339362,9.57920766 Z M14.8171864,20.9785277 C14.7237653,20.887904 13.8054861,19.9945113 13.8054861,19.9945113 L15.3226745,18.5181299 L16.3336506,19.5021463 L14.8171864,20.9785277 L14.8171864,20.9785277 Z M13.2999981,24.4215148 C12.5873903,25.0730065 9.40310516,26.5251264 7.52816449,25.117248 C7.52816449,25.117248 8.18066412,24.6156065 8.67456506,23.6087558 C9.8542786,20.5211278 12.79451,20.9785277 12.79451,20.9785277 L13.8054861,21.9618306 C13.8156249,21.9718206 14.5608214,23.2698089 13.2999981,24.4215148 L13.2999981,24.4215148 Z M27.5456365,7.61117481 C26.707743,6.79627506 25.3491533,6.79627506 24.5112597,7.61117481 L12.0710393,19.7140773 C10.5480573,19.6798258 8.43847752,20.2114373 7.52816449,23.1499287 C6.83221317,24.7040895 5,24.6255966 5,24.6255966 C8.80419596,28.7835833 13.2876868,26.427367 14.3109742,25.4055313 C15.2111485,24.5078571 15.3407794,23.4089555 15.2444615,22.5298342 L27.5456365,10.5632241 C28.38353,9.74761076 28.38353,8.42607456 27.5456365,7.61117481 L27.5456365,7.61117481 Z" id="Fill-212" fill="#4A4A4A"></path>
            </g>
        </g>
    </g>
</svg>