<?xml version="1.0" encoding="UTF-8" standalone="no"?>
<svg width="33px" height="33px" viewBox="0 0 33 33" version="1.1" xmlns="http://www.w3.org/2000/svg" xmlns:xlink="http://www.w3.org/1999/xlink">
    <!-- Generator: Sketch 3.8.1 (29687) - http://www.bohemiancoding.com/sketch -->
    <title>icon/become</title>
    <desc>Created with Sketch.</desc>
    <defs></defs>
    <g id="Page-1" stroke="none" stroke-width="1" fill="none" fill-rule="evenodd">
        <g id="我的" transform="translate(-22.000000, -382.000000)">
            <g id="icon/become" transform="translate(23.000000, 383.000000)">
                <circle id="Oval-3-Copy-6" stroke="#979797" cx="15.5" cy="15.5" r="15.5"></circle>
                <path d="M24.0650576,9.19593579 L16.3566516,16.8065286 L15.507925,15.9687376 L23.2169385,8.35814482 C23.4514471,8.12667393 23.8311566,8.12667393 24.0650576,8.35814482 C24.2995662,8.58961571 24.2995662,8.9644649 24.0650576,9.19593579 L24.0650576,9.19593579 Z M14.2357464,18.9013098 C14.1573744,18.8241528 13.3870198,18.0635188 13.3870198,18.0635188 L14.659806,16.8065286 L15.507925,17.6443195 L14.2357464,18.9013098 L14.2357464,18.9013098 Z M12.9629603,21.8326668 C12.3651457,22.3873464 9.69381369,23.6236805 8.1209052,22.4250136 C8.1209052,22.4250136 8.66829436,21.9979164 9.08263333,21.1406843 C10.0723081,18.5118797 12.5389008,18.9013098 12.5389008,18.9013098 L13.3870198,19.7384932 C13.3955253,19.7469987 14.020679,20.8521051 12.9629603,21.8326668 L12.9629603,21.8326668 Z M24.9137842,7.52035385 C24.210866,6.82654872 23.0711301,6.82654872 22.3682119,7.52035385 L11.9319732,17.8247575 C10.6543268,17.7955958 8.88457688,18.2482095 8.1209052,20.7500392 C7.53706392,22.0732508 6,22.0064219 6,22.0064219 C9.19138213,25.5465292 12.9526322,23.5404481 13.8110794,22.6704578 C14.5662456,21.9061786 14.6749944,20.9705745 14.5941922,20.2220912 L24.9137842,10.0337268 C25.6167024,9.33931408 25.6167024,8.21415899 24.9137842,7.52035385 L24.9137842,7.52035385 Z" id="Fill-212" fill="#979797"></path>
            </g>
        </g>
    </g>
</svg>