<?xml version="1.0" encoding="UTF-8" standalone="no"?>
<svg width="27px" height="22px" viewBox="0 0 27 22" version="1.1" xmlns="http://www.w3.org/2000/svg" xmlns:xlink="http://www.w3.org/1999/xlink">
    <!-- Generator: Sketch 3.8.1 (29687) - http://www.bohemiancoding.com/sketch -->
    <title>icon/cart</title>
    <desc>Created with Sketch.</desc>
    <defs></defs>
    <g id="Page-1" stroke="none" stroke-width="1" fill="none" fill-rule="evenodd">
        <g id="首页" transform="translate(-334.000000, -50.000000)" fill="#FFFFFF">
            <path d="M357.143219,60.1538462 L352.5625,60.1538462 L352.5625,56.7692308 L357.625,56.7692308 L357.143219,60.1538462 L357.143219,60.1538462 Z M356.419281,65.2307692 L352.5625,65.2307692 L352.5625,61.8461538 L356.901906,61.8461538 L356.419281,65.2307692 L356.419281,65.2307692 Z M355.9375,68.6153846 C355.9375,69.5495385 355.1815,70.3076923 354.25,70.3076923 L352.5625,70.3076923 L352.5625,66.9230769 L356.178812,66.9230769 L355.9375,68.6153846 L355.9375,68.6153846 Z M344.125,56.7692308 L350.875,56.7692308 L350.875,60.1538462 L344.125,60.1538462 L344.125,56.7692308 Z M344.125,61.8461538 L350.875,61.8461538 L350.875,65.2307692 L344.125,65.2307692 L344.125,61.8461538 Z M344.125,66.9230769 L350.875,66.9230769 L350.875,70.3076923 L344.125,70.3076923 L344.125,66.9230769 Z M342.4375,60.1538462 L337.616312,60.1538462 L337.375,56.7692308 L342.4375,56.7692308 L342.4375,60.1538462 L342.4375,60.1538462 Z M342.4375,65.2307692 L337.977437,65.2307692 L337.736969,61.8461538 L342.4375,61.8461538 L342.4375,65.2307692 L342.4375,65.2307692 Z M342.4375,70.3076923 L339.90625,70.3076923 C338.97475,70.3076923 338.21875,69.5495385 338.21875,68.6153846 L338.098094,66.9230769 L342.4375,66.9230769 L342.4375,70.3076923 L342.4375,70.3076923 Z M360.15625,55.0769231 L354.649938,55.0769231 L356.359375,51.6923077 L358.46875,51.6923077 C358.935344,51.6923077 359.3125,51.3140769 359.3125,50.8461538 C359.3125,50.3782308 358.935344,50 358.46875,50 L355.09375,50 L352.491625,55.0769231 L342.57925,55.0769231 L339.90625,50 L336.53125,50 C336.064656,50 335.6875,50.3782308 335.6875,50.8461538 C335.6875,51.3140769 336.064656,51.6923077 336.53125,51.6923077 L338.640625,51.6923077 L340.451313,55.0769231 L334.84375,55.0769231 C334.377156,55.0769231 334,55.456 334,55.9230769 C334,56.391 334.377156,56.7692308 334.84375,56.7692308 L335.6875,56.7692308 L336.53125,68.6153846 C336.53125,70.4845385 338.042406,72 339.90625,72 L354.25,72 C356.113844,72 357.625,70.4845385 357.625,68.6153846 L359.3125,56.7692308 L360.15625,56.7692308 C360.622844,56.7692308 361,56.391 361,55.9230769 C361,55.456 360.622844,55.0769231 360.15625,55.0769231 L360.15625,55.0769231 Z" id="icon/cart"></path>
        </g>
    </g>
</svg>