<?xml version="1.0" encoding="UTF-8" standalone="no"?>
<svg width="25px" height="25px" viewBox="0 0 25 25" version="1.1" xmlns="http://www.w3.org/2000/svg" xmlns:xlink="http://www.w3.org/1999/xlink">
    <!-- Generator: Sketch 3.8.1 (29687) - http://www.bohemiancoding.com/sketch -->
    <title>icon/closed</title>
    <desc>Created with Sketch.</desc>
    <defs></defs>
    <g id="Page-1" stroke="none" stroke-width="1" fill="none" fill-rule="evenodd">
        <g id="廣告" transform="translate(-318.000000, -156.000000)" fill="#4A4A4A">
            <g id="Group-2" transform="translate(20.000000, 143.000000)">
                <path d="M310.5,36.4375 C304.459375,36.4375 299.5625,31.5390625 299.5625,25.5 C299.5625,19.4609375 304.459375,14.5625 310.5,14.5625 C316.540625,14.5625 321.4375,19.4609375 321.4375,25.5 C321.4375,31.5390625 316.540625,36.4375 310.5,36.4375 L310.5,36.4375 Z M310.5,13 C303.596094,13 298,18.59375 298,25.5 C298,32.40625 303.596094,38 310.5,38 C317.403906,38 323,32.40625 323,25.5 C323,18.59375 317.403906,13 310.5,13 L310.5,13 Z M314.966406,21.03125 C314.658594,20.7265625 314.160938,20.7265625 313.853125,21.03125 L310.495313,24.390625 L307.185938,21.078125 C306.880469,20.7734375 306.385156,20.7734375 306.08125,21.078125 C305.775781,21.3828125 305.775781,21.8828125 306.08125,22.1875 L309.390625,25.4921875 L306.057813,28.828125 C305.750781,29.1328125 305.750781,29.6328125 306.057813,29.9453125 C306.365625,30.25 306.864063,30.25 307.171875,29.9453125 L310.504688,26.609375 L313.814063,29.921875 C314.119531,30.2265625 314.614844,30.2265625 314.919531,29.921875 C315.225,29.6171875 315.225,29.1171875 314.919531,28.8125 L311.609375,25.5078125 L314.966406,22.1484375 C315.273438,21.8359375 315.273438,21.34375 314.966406,21.03125 L314.966406,21.03125 Z" id="icon/closed"></path>
            </g>
        </g>
    </g>
</svg>