<?xml version="1.0" encoding="UTF-8" standalone="no"?>
<svg width="33px" height="33px" viewBox="0 0 33 33" version="1.1" xmlns="http://www.w3.org/2000/svg" xmlns:xlink="http://www.w3.org/1999/xlink">
    <!-- Generator: Sketch 3.8.1 (29687) - http://www.bohemiancoding.com/sketch -->
    <title>icon/customer</title>
    <desc>Created with Sketch.</desc>
    <defs></defs>
    <g id="Page-1" stroke="none" stroke-width="1" fill="none" fill-rule="evenodd">
        <g id="我的" transform="translate(-22.000000, -261.000000)">
            <g id="icon/customer" transform="translate(23.000000, 262.000000)">
                <circle id="Oval-3-Copy-8" stroke="#979797" cx="15.5" cy="15.5" r="15.5"></circle>
                <path d="M23.554387,10.7480369 C22.5153958,12.7221202 20.2082242,15.7608638 18.2769229,17.7648944 C16.0504259,20.1729093 10.8016869,23.4659002 10.8016869,23.4659002 C10.3964804,23.6785878 9.27192522,23.6944782 8.96267255,23.3858367 L7.84361793,22.269838 C7.61259518,21.8835777 7.50869606,21.4362003 7.84361793,21.1538392 L10.0823383,19.4792299 C10.4612645,19.2231491 10.8921403,19.1711996 11.201393,19.4792299 L12.5808066,20.8543653 C12.9053385,20.6263984 18.0868487,17.2307307 20.9691324,12.5558816 L19.5567156,11.1471318 C19.2474629,10.8391014 19.3000237,10.4088369 19.5567156,10.0305218 L21.2356031,7.7985243 C21.5448558,7.38598368 22.0460162,7.4898828 22.3546577,7.7985243 L23.4743235,8.91452306 C23.9131445,9.32645251 23.7860209,10.2866026 23.554387,10.7480369 L23.554387,10.7480369 Z M24.4332513,8.11755571 L22.6743003,6.36349412 C22.1890303,5.87883529 21.4012305,5.87883529 20.9153494,6.36349412 L18.2769229,9.87161729 C17.874161,10.4650646 17.7916529,11.1410201 18.2769229,11.6256789 L19.3538067,12.6995068 C18.555617,13.7690566 17.5973005,14.9351714 16.5185831,16.0108328 C15.2986853,17.2270637 13.941885,18.3326726 12.7219871,19.2408731 L11.6811624,18.2037154 C11.1958924,17.7190566 10.5181035,17.8009535 9.92221147,18.2037154 L6.40430955,20.8348078 C5.81452926,21.2412367 5.91842838,22.1042106 6.40430955,22.5888694 L8.16326051,24.3423198 C9.13502285,25.3116375 10.3983139,25.0011624 11.6811624,24.3423198 C11.6811624,24.3423198 15.5639336,22.1689947 18.8880942,18.8540017 C22.0148465,15.7358058 24.4332513,11.6256789 24.4332513,11.6256789 C24.9374676,10.2425983 25.4050136,9.08626219 24.4332513,8.11755571 L24.4332513,8.11755571 Z" id="Fill-179" fill="#979797"></path>
            </g>
        </g>
    </g>
</svg>