<?xml version="1.0" encoding="UTF-8" standalone="no"?>
<svg width="33px" height="33px" viewBox="0 0 33 33" version="1.1" xmlns="http://www.w3.org/2000/svg" xmlns:xlink="http://www.w3.org/1999/xlink">
    <!-- Generator: Sketch 3.8.1 (29687) - http://www.bohemiancoding.com/sketch -->
    <title>icon/fee</title>
    <desc>Created with Sketch.</desc>
    <defs></defs>
    <g id="Page-1" stroke="none" stroke-width="1" fill="none" fill-rule="evenodd">
        <g id="我的" transform="translate(-22.000000, -445.000000)">
            <g id="icon/fee" transform="translate(23.000000, 446.000000)">
                <circle id="Oval-3-Copy-13" stroke="#979797" cx="15.5" cy="15.5" r="15.5"></circle>
                <g id="pay" transform="translate(8.000000, 7.000000)" stroke-width="0.5" fill="#979797">
                    <g id="Group">
                        <g id="Shape">
                            <path d="M13.75,17.8 L1.41666667,17.8 C0.777777778,17.8 0.25,17.2571429 0.25,16.6 L0.25,1.42857143 C0.25,0.771428571 0.777777778,0.228571429 1.41666667,0.228571429 L13.75,0.228571429 C14.3888889,0.228571429 14.9166667,0.771428571 14.9166667,1.42857143 L14.9166667,16.6 C14.9166667,17.2571429 14.3888889,17.8 13.75,17.8 L13.75,17.8 Z M1.41666667,0.685714286 C1.02777778,0.685714286 0.694444444,1.02857143 0.694444444,1.42857143 L0.694444444,16.6 C0.694444444,17 1,17.3142857 1.38888889,17.3142857 L13.7222222,17.3142857 C14.1111111,17.3142857 14.4166667,17 14.4166667,16.6 L14.4166667,1.42857143 C14.4166667,1.02857143 14.1111111,0.714285714 13.7222222,0.714285714 L1.41666667,0.714285714 L1.41666667,0.685714286 Z" stroke="#9B9B9B"></path>
                            <path d="M7.58333333,6.8 C7.19444444,6.8 6.83333333,6.62857143 6.55555556,6.34285714 L0.416666667,1.17142857 C0.305555556,1.08571429 0.305555556,0.942857143 0.388888889,0.828571429 C0.472222222,0.714285714 0.611111111,0.714285714 0.722222222,0.8 L6.86111111,6 C7.27777778,6.42857143 7.91666667,6.4 8.27777778,6.02857143 L14.4444444,0.8 C14.5555556,0.714285714 14.6944444,0.742857143 14.7777778,0.828571429 C14.8611111,0.942857143 14.8333333,1.08571429 14.75,1.17142857 L8.61111111,6.37142857 C8.33333333,6.62857143 7.97222222,6.8 7.58333333,6.8 L7.58333333,6.8 Z" stroke="#979797"></path>
                        </g>
                        <g transform="translate(3.611111, 7.142857)" id="Shape" stroke="#979797">
                            <path d="M4.02777778,3.14285714 C3.69444444,3.14285714 3.41666667,3.02857143 3.16666667,2.77142857 L0.722222222,0.685714286 C0.611111111,0.6 0.611111111,0.457142857 0.694444444,0.342857143 C0.777777778,0.228571429 0.916666667,0.228571429 1.02777778,0.314285714 L3.5,2.4 C3.80555556,2.71428571 4.27777778,2.68571429 4.55555556,2.42857143 L6.91666667,0.428571429 C7.02777778,0.342857143 7.16666667,0.371428571 7.25,0.457142857 C7.33333333,0.571428571 7.30555556,0.714285714 7.22222222,0.8 L4.86111111,2.8 C4.63888889,3.02857143 4.33333333,3.14285714 4.02777778,3.14285714 L4.02777778,3.14285714 Z"></path>
                            <path d="M7.52777778,3.7 L0.416666667,3.7 C0.277777778,3.7 0.194444444,3.575 0.194444444,3.45 C0.194444444,3.29375 0.305555556,3.2 0.416666667,3.2 L7.52777778,3.2 C7.66666667,3.2 7.75,3.325 7.75,3.45 C7.75,3.60625 7.66666667,3.7 7.52777778,3.7 L7.52777778,3.7 Z"></path>
                            <path d="M7.52777778,6.21428571 L0.416666667,6.21428571 C0.277777778,6.21428571 0.194444444,6.08928571 0.194444444,5.96428571 C0.194444444,5.80803571 0.305555556,5.71428571 0.416666667,5.71428571 L7.52777778,5.71428571 C7.66666667,5.71428571 7.75,5.83928571 7.75,5.96428571 C7.75,6.12053571 7.66666667,6.21428571 7.52777778,6.21428571 L7.52777778,6.21428571 Z"></path>
                            <path d="M4,8.77142857 C3.84375,8.77142857 3.75,8.65714286 3.75,8.54285714 L3.75,3.28571429 C3.75,3.14285714 3.875,3.05714286 4,3.05714286 C4.15625,3.05714286 4.25,3.17142857 4.25,3.28571429 L4.25,8.51428571 C4.25,8.65714286 4.125,8.77142857 4,8.77142857 L4,8.77142857 Z"></path>
                        </g>
                    </g>
                </g>
            </g>
        </g>
    </g>
</svg>