<?xml version="1.0" encoding="UTF-8" standalone="no"?>
<svg width="33px" height="33px" viewBox="0 0 33 33" version="1.1" xmlns="http://www.w3.org/2000/svg" xmlns:xlink="http://www.w3.org/1999/xlink">
    <!-- Generator: Sketch 3.8.1 (29687) - http://www.bohemiancoding.com/sketch -->
    <title>icon/help</title>
    <desc>Created with Sketch.</desc>
    <defs></defs>
    <g id="Page-1" stroke="none" stroke-width="1" fill="none" fill-rule="evenodd">
        <g id="我的" transform="translate(-22.000000, -201.000000)">
            <g id="icon/help" transform="translate(23.000000, 202.000000)">
                <circle id="Oval-3-Copy-9" stroke="#979797" cx="15.5" cy="15.5" r="15.5"></circle>
                <path d="M16,22.25 C15.27,22.25 14.565,22.165 13.8875,22.020625 L10.945,23.789375 L10.984375,20.89 C8.72875,19.53375 7.25,17.29125 7.25,14.75 C7.25,10.608125 11.1675,7.25 16,7.25 C20.8325,7.25 24.75,10.608125 24.75,14.75 C24.75,18.8925 20.8325,22.25 16,22.25 L16,22.25 Z M16,6 C10.4775,6 6,9.918125 6,14.75 C6,17.511875 7.465625,19.97125 9.75,21.574375 L9.75,26 L14.130625,23.341875 C14.736875,23.441875 15.360625,23.5 16,23.5 C21.5225,23.5 26,19.5825 26,14.75 C26,9.918125 21.5225,6 16,6 L16,6 Z M20.375,12.875 L11.625,12.875 C11.28,12.875 11,13.155 11,13.5 C11,13.845625 11.28,14.125 11.625,14.125 L20.375,14.125 C20.72,14.125 21,13.845625 21,13.5 C21,13.155 20.72,12.875 20.375,12.875 L20.375,12.875 Z M19.125,16.625 L12.875,16.625 C12.53,16.625 12.25,16.904375 12.25,17.25 C12.25,17.595625 12.53,17.875 12.875,17.875 L19.125,17.875 C19.47,17.875 19.75,17.595625 19.75,17.25 C19.75,16.904375 19.47,16.625 19.125,16.625 L19.125,16.625 Z" id="Fill-191" fill="#979797"></path>
            </g>
        </g>
    </g>
</svg>