<?xml version="1.0" encoding="UTF-8" standalone="no"?>
<svg width="35px" height="35px" viewBox="0 0 35 35" version="1.1" xmlns="http://www.w3.org/2000/svg" xmlns:xlink="http://www.w3.org/1999/xlink">
    <!-- Generator: Sketch 3.8.1 (29687) - http://www.bohemiancoding.com/sketch -->
    <title>icon/home</title>
    <desc>Created with Sketch.</desc>
    <defs>
        <polygon id="path-1" points="4.66910515e-05 19.8005246 19.9589819 19.8005246 19.9589819 -0.000106567157 4.66910515e-05 -0.000106567157"></polygon>
    </defs>
    <g id="Page-1" stroke="none" stroke-width="1" fill="none" fill-rule="evenodd">
        <g id="我的" transform="translate(-21.000000, -747.000000)">
            <g id="icon/home" transform="translate(22.000000, 748.000000)">
                <circle id="Oval-46" stroke="#4A4A4A" cx="16.5" cy="16.5" r="16.5"></circle>
                <g id="Page-1" transform="translate(7.000000, 7.000000)">
                    <mask id="mask-2" fill="white">
                        <use xlink:href="#path-1"></use>
                    </mask>
                    <g id="Clip-2"></g>
                    <path d="M2.89531148,10.3579672 L2.90121311,18.1897705 C2.90121311,18.7707541 3.26055738,19.2428852 3.70219672,19.2428852 L7.19563934,19.2438689 C7.68940984,19.243541 7.68940984,19.1878033 7.68940984,18.653377 L7.68940984,12.1750164 C7.68940984,11.4074754 8.25662295,10.7828852 8.95334426,10.7828852 L11.071377,10.7828852 C11.7677705,10.7828852 12.334,11.4074754 12.334,12.1750164 L12.3336721,18.8999344 C12.3323607,19.0094426 12.3307213,19.1596066 12.3697377,19.1996066 C12.3903934,19.2205902 12.4562951,19.2428852 12.5782623,19.2428852 L16.321541,19.2428852 C16.7635082,19.2428852 17.1228525,18.7707541 17.1228525,18.1904262 L17.1228525,10.0792787 C17.1228525,9.3002623 17.7458033,8.66681967 18.511377,8.66681967 L19.3926885,8.66681967 C19.389082,8.656 19.3769508,8.63796721 19.3559672,8.61862295 C19.1543279,8.42977049 18.6903934,8.02255738 18.6903934,8.02255738 L10.6136721,0.796 C10.2756393,0.45895082 9.73662295,0.470098361 9.42154098,0.785508197 L0.614327869,8.66616393 L1.5035082,8.66681967 C2.274,8.66681967 2.90121311,9.3002623 2.90121311,10.0792787 L2.89531148,10.3579672 Z M7.19563934,19.8005902 L7.12744262,19.7996066 L3.70219672,19.7996066 C2.95334426,19.7996066 2.3444918,19.0776393 2.3444918,18.1904262 L2.3382623,9.97862295 C2.28744262,9.55993443 1.92547541,9.22321311 1.50318033,9.22321311 L0.838590164,9.22288525 L0.455311475,9.22321311 C0.256295082,9.22321311 0.0985901639,9.11927869 0.031704918,8.94485246 C-0.0499344262,8.7307541 0.0310491803,8.4412459 0.220229508,8.27206557 L9.03891803,0.380918033 C9.54219672,-0.123672131 10.4707213,-0.134163934 10.9962951,0.391737705 L19.0595738,7.6055082 C19.0595738,7.6055082 19.5317049,8.0202623 19.7369508,8.21239344 C19.9172787,8.38190164 19.9946557,8.60780328 19.9435082,8.81665574 C19.8953115,9.01042623 19.7474426,9.15468852 19.5369508,9.21304918 L19.4625246,9.22321311 L18.511377,9.22321311 C18.0605574,9.22321311 17.6795738,9.61534426 17.6795738,10.0792787 L17.6795738,18.1904262 C17.6795738,19.0776393 17.0703934,19.7996066 16.321541,19.7996066 L12.5799016,19.7996066 C12.3103934,19.7996066 12.1126885,19.7314098 11.974,19.5907541 C11.7710492,19.3855082 11.7743279,19.1012459 11.7769508,18.893377 L11.7776066,18.8258361 L11.7776066,12.1750164 C11.7776066,11.7143607 11.4605574,11.3399344 11.071377,11.3399344 L8.95334426,11.3399344 C8.5635082,11.3399344 8.24645902,11.7143607 8.24645902,12.1750164 L8.24645902,18.6523934 C8.24645902,19.1641967 8.24645902,19.8002623 7.19563934,19.8005902 L7.19563934,19.8005902 Z" id="Fill-1" stroke="#4A4A4A" mask="url(#mask-2)"></path>
                </g>
            </g>
        </g>
    </g>
</svg>