<?xml version="1.0" encoding="UTF-8" standalone="no"?>
<svg width="35px" height="35px" viewBox="0 0 35 35" version="1.1" xmlns="http://www.w3.org/2000/svg" xmlns:xlink="http://www.w3.org/1999/xlink">
    <!-- Generator: Sketch 3.8.1 (29687) - http://www.bohemiancoding.com/sketch -->
    <title>icon/info</title>
    <desc>Created with Sketch.</desc>
    <defs></defs>
    <g id="Page-1" stroke="none" stroke-width="1" fill="none" fill-rule="evenodd">
        <g id="首页" transform="translate(-245.000000, -606.000000)" stroke="#4A4A4A">
            <g id="icon/info" transform="translate(246.000000, 607.000000)">
                <g id="file" transform="translate(8.000000, 7.000000)" fill="#FFFFFF">
                    <g id="Group">
                        <path d="M11.9,19.8709677 L2.09230769,19.8709677 C1.04615385,19.8709677 0.228846154,19.0322581 0.228846154,18.0322581 L0.228846154,2 C0.228846154,0.967741935 1.07884615,0.161290323 2.09230769,0.161290323 L15.0384615,0.161290323 C16.0846154,0.161290323 16.9019231,1 16.9019231,2 L16.9019231,14.9354839 C16.9346154,17.2903226 15.0057692,19.8709677 11.9,19.8709677 L11.9,19.8709677 Z M2.09230769,0.548387097 C1.275,0.548387097 0.621153846,1.19354839 0.621153846,2 L0.621153846,18.0322581 C0.621153846,18.8387097 1.275,19.483871 2.09230769,19.483871 L11.9,19.483871 C14.7442308,19.483871 16.5096154,17.1290323 16.5096154,14.9354839 L16.5096154,2 C16.5096154,1.19354839 15.8557692,0.548387097 15.0384615,0.548387097 L2.09230769,0.548387097 L2.09230769,0.548387097 Z" id="Shape"></path>
                        <polygon id="Shape" points="12.4884615 19.6451613 12.0961538 19.6451613 12.0961538 14.7096774 16.7057692 14.7096774 16.7057692 15.1290323 12.4884615 15.1290323"></polygon>
                        <path d="M13.0115385,3.75806452 L2.64807692,3.75806452 C2.51730769,3.75806452 2.45192308,3.63306452 2.45192308,3.50806452 C2.45192308,3.34139785 2.55,3.25806452 2.64807692,3.25806452 L13.0442308,3.25806452 C13.175,3.25806452 13.2403846,3.38306452 13.2403846,3.50806452 C13.2403846,3.63306452 13.1423077,3.75806452 13.0115385,3.75806452 L13.0115385,3.75806452 Z" id="Shape"></path>
                        <path d="M13.0115385,8.33870968 L2.64807692,8.33870968 C2.51730769,8.33870968 2.45192308,8.21370968 2.45192308,8.08870968 C2.45192308,7.92204301 2.55,7.83870968 2.64807692,7.83870968 L13.0442308,7.83870968 C13.175,7.83870968 13.2403846,7.96370968 13.2403846,8.08870968 C13.2403846,8.21370968 13.1423077,8.33870968 13.0115385,8.33870968 L13.0115385,8.33870968 Z" id="Shape"></path>
                        <path d="M13.0115385,12.9516129 L2.64807692,12.9516129 C2.51730769,12.9516129 2.45192308,12.8266129 2.45192308,12.7016129 C2.45192308,12.5349462 2.55,12.4516129 2.64807692,12.4516129 L13.0442308,12.4516129 C13.175,12.4516129 13.2403846,12.5766129 13.2403846,12.7016129 C13.2403846,12.8266129 13.1423077,12.9516129 13.0115385,12.9516129 L13.0115385,12.9516129 Z" id="Shape"></path>
                        <path d="M8.69615385,17.6935484 L2.64807692,17.6935484 C2.51730769,17.6935484 2.45192308,17.5685484 2.45192308,17.4435484 C2.45192308,17.2768817 2.55,17.1935484 2.64807692,17.1935484 L8.69615385,17.1935484 C8.82692308,17.1935484 8.89230769,17.3185484 8.89230769,17.4435484 C8.925,17.5685484 8.82692308,17.6935484 8.69615385,17.6935484 L8.69615385,17.6935484 Z" id="Shape"></path>
                    </g>
                </g>
                <circle id="Oval-46-Copy-3" cx="16.5" cy="16.5" r="16.5"></circle>
            </g>
        </g>
    </g>
</svg>