<?xml version="1.0" encoding="UTF-8" standalone="no"?>
<svg width="100px" height="24px" viewBox="0 0 100 24" version="1.1" xmlns="http://www.w3.org/2000/svg" xmlns:xlink="http://www.w3.org/1999/xlink">
    <!-- Generator: Sketch 3.8.1 (29687) - http://www.bohemiancoding.com/sketch -->
    <title>icon/logo</title>
    <desc>Created with Sketch.</desc>
    <defs>
        <polygon id="path-1" points="0.000124227175 23.7567584 99.5320546 23.7567584 99.5320546 4.42935731e-15 0.000124227175 0 0.000124227175 23.7567584"></polygon>
    </defs>
    <g id="Page-1" stroke="none" stroke-width="1" fill="none" fill-rule="evenodd">
        <g id="分类" transform="translate(-133.000000, -48.000000)">
            <g id="icon/logo" transform="translate(133.000000, 48.000000)">
                <mask id="mask-2" fill="white">
                    <use xlink:href="#path-1"></use>
                </mask>
                <g id="Clip-2"></g>
                <path d="M76.3641214,21.4575584 L83.6522191,21.4575584 L83.6522191,23.4875844 L75.7491968,23.4875844 L75.7491968,21.4575584 L76.3641214,21.4575584 Z M90.7198137,4.40883117 L83.9056426,4.40883117 L83.9056426,2.37880519 L90.7198137,2.37880519 L90.7198137,0 L92.7425426,0 L92.7425426,2.37880519 L99.5321789,2.37880519 L99.5321789,4.40883117 L92.7425426,4.40883117 L92.7425426,9.33412987 L99.160429,9.33412987 L99.160429,11.3638442 L84.2773924,11.3638442 L84.2773924,9.33412987 L90.7198137,9.33412987 L90.7198137,4.40883117 Z M87.3234427,21.4578701 C87.4007741,21.5351688 87.4933234,21.5968831 87.5970531,21.6386494 C87.6976771,21.6794805 87.809171,21.7019221 87.9278079,21.7019221 L95.9559891,21.7019221 C96.0699675,21.7019221 96.179598,21.6788571 96.2796009,21.6370909 C96.3833306,21.5934545 96.4774326,21.5298701 96.5556958,21.451013 C96.6336483,21.3727792 96.6966936,21.2792727 96.739552,21.1754805 C96.7805469,21.0766753 96.8032184,20.9672727 96.8032184,20.8519481 L96.8032184,15.4263896 C96.8032184,15.3104416 96.7805469,15.2007273 96.7398625,15.1016104 C96.7041472,15.0143377 96.6541458,14.9345455 96.5932745,14.865039 L96.5560063,14.8276364 C96.4768115,14.7481558 96.3827094,14.6845714 96.2796009,14.6412468 C96.179598,14.5994805 96.0699675,14.5764156 95.9559891,14.5764156 L87.9278079,14.5764156 C87.8097921,14.5764156 87.6986088,14.5988571 87.5982953,14.6396883 C87.4942551,14.6820779 87.4013953,14.7444156 87.3243744,14.8214026 L87.2911436,14.8547532 C87.2293406,14.9245714 87.1793392,15.0056104 87.1436239,15.0947532 C87.1029395,15.1954286 87.0805786,15.3076364 87.0805786,15.4263896 L87.0805786,20.8519481 C87.0805786,20.9707013 87.1029395,21.0825974 87.1436239,21.1835844 C87.18524,21.2876883 87.2467324,21.3808831 87.3234427,21.4578701 L87.3234427,21.4578701 Z M11.8190976,15.8537143 L18.236984,15.8537143 C18.3006505,15.8537143 18.3618324,15.8477922 18.4199086,15.8365714 C18.4804693,15.825039 18.5385455,15.8075844 18.593516,15.7854545 C18.7059416,15.7399481 18.8062551,15.6729351 18.8891767,15.5897143 L18.8913507,15.5875325 C18.9338985,15.5451429 18.9714772,15.499013 19.0034657,15.4500779 C19.0357648,15.4008312 19.0637159,15.3475325 19.0863873,15.2908052 C19.1087482,15.2356364 19.1258295,15.177039 19.1376311,15.1165714 C19.1485009,15.0582857 19.1544017,14.9965714 19.1544017,14.932987 L19.1544017,6.66857143 L10.9016799,6.66857143 L10.9016799,14.932987 C10.9016799,14.9965714 10.9078913,15.057974 10.9190717,15.1162597 C10.9305628,15.1761039 10.9479546,15.2343896 10.9703155,15.2898701 C10.9929869,15.3462857 11.0212486,15.3998961 11.0538582,15.4491429 C11.0864679,15.4987013 11.1246677,15.5454545 11.166905,15.5878442 C11.2091422,15.6302338 11.2554168,15.6685714 11.3047971,15.7012987 C11.3541774,15.7337143 11.4072845,15.7620779 11.4638079,15.7851429 C11.519089,15.8075844 11.5768546,15.825039 11.6367942,15.8365714 C11.6948705,15.8477922 11.7560523,15.8537143 11.8190976,15.8537143 L11.8190976,15.8537143 Z M51.2717849,5.10981818 L51.2717849,0.091012987 L53.2696684,0.091012987 L53.2696684,5.72696104 L51.2717849,5.72696104 L51.2717849,5.10981818 Z M54.5874082,21.6274286 L73.2953996,21.6274286 L73.2953996,23.6571429 L54.5874082,23.6571429 C54.1349107,23.6571429 53.7050847,23.5673766 53.3140797,23.4043636 C52.9078568,23.2354286 52.5435606,22.987013 52.2388935,22.6784416 C51.9339157,22.3698701 51.6888776,22.0005195 51.5217921,21.5903377 C51.3602968,21.1938701 51.2717849,20.7593766 51.2717849,20.3046234 L51.2717849,6.76862338 L53.2696684,6.76862338 L53.2696684,20.3046234 C53.2696684,20.4866494 53.304452,20.6596364 53.368429,20.8161039 C53.43458,20.9778701 53.5314772,21.1234286 53.6529093,21.2452987 C53.7727885,21.3656104 53.916892,21.4625455 54.0780768,21.5286234 C54.2333607,21.5922078 54.4054154,21.6274286 54.5874082,21.6274286 L54.5874082,21.6274286 Z M56.7641789,4.80685714 L54.517841,4.80685714 L54.517841,2.77683117 L56.7641789,2.77683117 L56.7641789,0.0635844156 L58.7865973,0.0635844156 L58.7865973,2.77683117 L73.0680638,2.77683117 L73.0680638,4.80685714 L58.8331825,4.80685714 C58.8238654,4.84706494 58.8077159,4.87075325 58.7865973,4.88228571 L58.7865973,8.59231169 C58.7865973,8.71106494 58.8089582,8.82327273 58.8496426,8.92425974 C58.8915692,9.02805195 58.9530617,9.12155844 59.0294614,9.19854545 C59.1064822,9.27553247 59.1996526,9.33724675 59.3030717,9.37932468 C59.4036958,9.42015584 59.5155002,9.4425974 59.6338266,9.4425974 L63.7358079,9.4425974 L63.7358079,5.91023377 L65.7582263,5.91023377 L65.7582263,9.45787013 L75.6436037,9.45787013 L75.6436037,5.17246753 C75.6436037,4.79096104 75.7209352,4.41911688 75.8625541,4.07657143 C76.0072788,3.72623377 76.2193967,3.40612987 76.4840006,3.13776623 C76.7445671,2.87283117 77.0563773,2.65714286 77.4054556,2.51033766 C77.7365211,2.37038961 78.101749,2.29246753 78.488406,2.29246753 C79.8319229,2.29246753 81.1900365,2.26815584 82.5313794,2.29558442 L82.5313794,4.32966234 C81.2328949,4.25890909 79.8021084,4.32218182 78.488406,4.32249351 C78.3722536,4.32249351 78.2635549,4.34431169 78.1663471,4.38358442 C78.0657231,4.42472727 77.9765901,4.48457143 77.9036066,4.55906494 C77.8287597,4.63542857 77.7688201,4.72862338 77.7278252,4.83397403 C77.6877619,4.93620779 77.6660221,5.0505974 77.6660221,5.17246753 L77.6660221,9.4214026 L82.7422551,9.4214026 L82.7422551,11.4514286 L77.6660221,11.4514286 L77.6660221,16.8280519 C77.6660221,16.9496104 77.6877619,17.064 77.7278252,17.1665455 C77.7688201,17.2715844 77.8287597,17.3647792 77.9036066,17.4411429 C77.9765901,17.5156364 78.0654125,17.5757922 78.1663471,17.6169351 C78.2635549,17.6562078 78.3722536,17.678026 78.488406,17.678026 L83.2686677,17.678026 L83.2686677,17.6618182 C83.2509653,17.654961 83.2335735,17.6468571 83.2351264,17.6390649 C83.2543816,17.5542857 83.2736368,17.4701299 83.3500365,17.4645195 L83.4447597,17.4573506 L83.4447597,19.7068052 C81.7925383,19.7083636 80.1406275,19.7077403 78.488406,19.7080519 C78.0958482,19.7080519 77.7244089,19.6316883 77.3877533,19.4923636 C77.0380538,19.3480519 76.7256224,19.1361039 76.4656771,18.8724156 L76.4402105,18.8465455 L76.4402105,18.8440519 C76.1920667,18.5853506 75.9929927,18.2786494 75.8557216,17.9376623 C75.7184506,17.596987 75.6436037,17.2223377 75.6436037,16.8280519 L75.6436037,11.4878961 L65.7582263,11.4878961 L65.7582263,15.633974 L73.0680638,15.633974 L73.0680638,17.664 L65.7582263,17.664 L65.7582263,20.7880519 L63.7358079,20.7880519 L63.7358079,17.664 L55.4309107,17.664 L55.4309107,15.633974 L63.7358079,15.633974 L63.7358079,11.4863377 L63.0360983,11.4776104 L63.0360983,11.4723117 L59.6338266,11.4723117 C59.2471695,11.4723117 58.8800782,11.3940779 58.5462177,11.2541299 C58.1946548,11.1063896 57.8797389,10.8907013 57.6163773,10.6263896 C57.3489783,10.3583377 57.1334441,10.0379221 56.9862349,9.68633766 C56.8430631,9.34441558 56.7641789,8.97319481 56.7641789,8.59231169 L56.7641789,4.80685714 Z M36.6931048,18.1365195 L31.5187324,18.1365195 L31.5187324,16.1064935 L36.6931048,16.1064935 C36.8139157,16.1064935 36.9288259,16.0834286 37.0325556,16.0416623 C37.1400121,15.998026 37.2362881,15.9344416 37.3164147,15.8555844 C37.3946778,15.7785974 37.4577231,15.686026 37.5005815,15.5822338 C37.541887,15.4828052 37.564869,15.3727792 37.564869,15.2562078 L37.564869,11.4763636 C37.564869,11.3597922 37.541887,11.2497662 37.5005815,11.1506494 C37.4577231,11.0468571 37.3946778,10.953974 37.3164147,10.876987 C37.2362881,10.7981299 37.1400121,10.7342338 37.0325556,10.6912208 C36.9285153,10.6491429 36.8139157,10.6260779 36.6931048,10.6260779 L29.4326476,10.6260779 C29.3146318,10.6260779 29.2034485,10.6485195 29.103135,10.6896623 C28.9994053,10.7317403 28.9071666,10.7934545 28.8304564,10.8701299 C28.8056109,10.8956883 28.7844923,10.9156364 28.764616,10.9346494 C28.6580912,11.0362597 28.5854183,11.1051429 28.5854183,11.4763636 L28.5854183,20.4040519 C28.5854183,20.582961 28.6211336,20.7537662 28.6851106,20.908987 C28.7521932,21.0710649 28.8503327,21.2169351 28.9717648,21.3384935 C29.0941285,21.460987 29.2394743,21.5594805 29.4003485,21.6264935 C29.5550114,21.691013 29.7252026,21.7268571 29.9034686,21.7268571 L40.8016081,21.7268571 L40.8016081,23.7568831 L29.9034686,23.7568831 C29.4500394,23.7568831 29.0177288,23.6668052 28.6233075,23.5034805 C28.213979,23.3339221 27.845956,23.0851948 27.5388043,22.7769351 C27.2316526,22.4686753 26.98413,22.0996364 26.815181,21.6888312 C26.6524434,21.2932987 26.5626893,20.8591169 26.5626893,20.4040519 L26.5626893,11.4763636 C26.5626893,11.0964156 26.6521329,10.7264416 26.8012055,10.3876364 C26.9648748,10.0157922 27.201217,9.68041558 27.4701688,9.41049351 C27.720176,9.15927273 28.0785714,8.96384416 28.467713,8.82763636 C28.9034398,8.67522078 29.3792299,8.59605195 29.7838999,8.59605195 L36.6931048,8.59605195 C37.0906318,8.59605195 37.4670401,8.6721039 37.8086648,8.81049351 C38.1639546,8.95418182 38.4810444,9.16519481 38.7456483,9.42794805 C39.0114945,9.69194805 39.2248546,10.0086234 39.3702004,10.3623896 C39.5105771,10.7043117 39.587598,11.0805195 39.587598,11.4763636 L39.587598,15.2562078 C39.587598,15.6520519 39.5105771,16.0282597 39.3702004,16.3701818 C39.2248546,16.7239481 39.0114945,17.0406234 38.7456483,17.3046234 C38.4810444,17.5673766 38.163644,17.7783896 37.8086648,17.9220779 C37.4670401,18.0604675 37.0906318,18.1365195 36.6931048,18.1365195 L36.6931048,18.1365195 Z M45.4113679,23.7568831 L42.4920293,23.7568831 L42.4920293,21.7268571 L45.4113679,21.7268571 C45.5815592,21.7268571 45.7377748,21.6944416 45.8762881,21.6358442 C46.0213234,21.5747532 46.1483457,21.4846753 46.2526965,21.3727792 C46.3641904,21.2530909 46.4530128,21.1065974 46.513263,20.9410909 C46.5732026,20.7780779 46.6055017,20.5963636 46.6055017,20.4040519 L46.6055017,0.00405194805 L48.6279201,0.00405194805 L48.6279201,20.4040519 C48.6279201,20.8600519 48.5437561,21.2951688 48.3890933,21.6919481 C48.2303931,22.1002597 47.9965354,22.4680519 47.7036699,22.776 C47.4092515,23.0855065 47.0561357,23.3345455 46.659851,23.5041039 C46.2787842,23.6671169 45.8579646,23.7568831 45.4113679,23.7568831 L45.4113679,23.7568831 Z M42.1159316,19.4343896 L42.1159316,2.45392208 L44.1386605,2.45392208 L44.1386605,20.0512208 L42.1159316,20.0512208 L42.1159316,19.4343896 Z M2.10639597,6.66857143 L0.000124227175,6.66857143 L0.000124227175,4.77942857 L2.10639597,4.77942857 L2.10639597,0.460051948 L3.98843767,0.460051948 L3.98843767,4.77942857 L9.01963825,4.77942857 L9.01963825,0.410181818 L10.9016799,0.410181818 L10.9016799,4.77942857 L19.1544017,4.77942857 L19.1544017,0.410181818 L21.0364434,0.410181818 L21.0364434,4.77942857 L26.8033794,4.77942857 L26.8033794,3.73714286 C26.8033794,3.54732468 26.8217029,3.36187013 26.8564866,3.18233766 C26.8915807,2.99937662 26.9446879,2.82264935 27.0133234,2.65402597 C27.0832012,2.48290909 27.1692285,2.32051948 27.2695419,2.16935065 C27.3714082,2.01537662 27.4878712,1.87293506 27.6164463,1.74358442 C27.745332,1.61454545 27.8875721,1.49766234 28.0406821,1.39511688 C28.190997,1.29475325 28.3528029,1.20841558 28.5239258,1.13828571 C28.6916325,1.0694026 28.8680351,1.0161039 29.0503385,0.980571429 C29.228915,0.945662338 29.4140135,0.927584416 29.6031494,0.927584416 L36.5167022,0.927584416 C36.7058381,0.927584416 36.8909366,0.945662338 37.0695132,0.980571429 C37.2518165,1.0161039 37.4279086,1.0694026 37.5959258,1.13828571 C37.7667382,1.20841558 37.9285441,1.29475325 38.0791695,1.39511688 C38.2322795,1.49735065 38.3745196,1.61423377 38.5030948,1.74358442 C38.632291,1.87355844 38.748754,2.01631169 38.8503097,2.16935065 C38.9503126,2.32020779 39.0363399,2.4825974 39.1062177,2.65402597 C39.1748532,2.82264935 39.2279603,2.99937662 39.2633651,3.18233766 C39.2981487,3.36187013 39.3161616,3.54732468 39.3161616,3.73714286 L39.3161616,7.39574026 L37.4341199,7.39574026 L37.4341199,3.73714286 C37.4341199,3.67231169 37.4279086,3.60966234 37.4164175,3.54950649 C37.404616,3.48748052 37.3869136,3.42732468 37.3642421,3.37028571 C37.3409495,3.31231169 37.3120667,3.25714286 37.2788359,3.20602597 C37.2446735,3.15366234 37.206163,3.10535065 37.1639258,3.06202597 C37.1216886,3.01932468 37.0751034,2.98036364 37.0257231,2.9467013 C36.9763428,2.91335065 36.9235462,2.88436364 36.8682651,2.86161039 C36.8136052,2.83885714 36.7561501,2.82109091 36.6968316,2.80924675 C36.639066,2.79771429 36.5785052,2.79179221 36.5167022,2.79179221 L29.6031494,2.79179221 C29.5410358,2.79179221 29.4807856,2.79771429 29.42302,2.80924675 C29.3633909,2.82109091 29.3059359,2.83885714 29.2515865,2.86161039 C29.1963054,2.88436364 29.1435088,2.91335065 29.0941285,2.9467013 C29.0444377,2.98036364 28.998163,3.01932468 28.9559258,3.06202597 C28.913378,3.10566234 28.874557,3.15397403 28.8410157,3.2054026 C28.8074743,3.25745455 28.7785915,3.31262338 28.7556095,3.37028571 C28.732938,3.42732468 28.7149251,3.48748052 28.7031235,3.54950649 C28.6916325,3.60966234 28.6857317,3.67231169 28.6857317,3.73714286 L28.6857317,6.69038961 L26.8213924,6.6907013 L21.0364434,6.66857143 L21.0364434,14.932987 C21.0364434,15.1228052 21.0184305,15.3085714 20.9836469,15.4877922 C20.9482421,15.6707532 20.8954456,15.8474805 20.8268101,16.0161039 C20.6864334,16.3602078 20.4802162,16.6690909 20.2233766,16.9265455 C20.0938697,17.0565195 19.9519402,17.1734026 19.7994513,17.275013 C19.6491364,17.3750649 19.4873306,17.4617143 19.3162076,17.5318442 C19.1488115,17.6007273 18.9724089,17.654026 18.789795,17.6895584 C18.6109078,17.7244675 18.4261199,17.7425455 18.236984,17.7425455 L11.8190976,17.7425455 C11.6302723,17.7425455 11.4454844,17.7244675 11.2665973,17.6895584 C11.0842939,17.654026 10.9082019,17.601039 10.7401846,17.5318442 C10.5690617,17.4617143 10.4072558,17.3750649 10.2569409,17.275013 C10.1038309,17.1724675 9.9615908,17.0555844 9.83301567,16.9265455 C9.70381941,16.7965714 9.58704587,16.6538182 9.48580072,16.5007792 C9.38579784,16.3499221 9.29977052,16.1875325 9.22989274,16.0157922 C9.16125723,15.8477922 9.10815011,15.6710649 9.07274536,15.4877922 C9.03796175,15.3082597 9.01963825,15.1224935 9.01963825,14.932987 L9.01963825,6.66857143 L3.98843767,6.66857143 L3.98843767,19.6828052 C3.98843767,19.7781818 3.99744414,19.8707532 4.01452538,19.958961 C4.03191718,20.0505974 4.05831546,20.1378701 4.09154623,20.2201558 C4.12632983,20.3052468 4.16887764,20.3856623 4.21856851,20.4604675 C4.26825938,20.5358961 4.32602502,20.6063377 4.39000201,20.6705455 C4.45397901,20.7347532 4.52447793,20.7927273 4.59963537,20.8429091 C4.67510338,20.8934026 4.75616161,20.9364156 4.84063609,20.9713247 C4.92324716,21.0052987 5.01082732,21.0317922 5.10244486,21.0498701 C5.19064615,21.067013 5.28257426,21.0760519 5.37667635,21.0760519 L24.2542378,21.0760519 L24.2542378,22.9648831 L5.37667635,22.9648831 C5.15741538,22.9648831 4.94312351,22.9433766 4.73597469,22.9025455 C4.52385679,22.8607792 4.31888196,22.7981299 4.12322416,22.7170909 C3.92446068,22.6348052 3.73501423,22.5328831 3.55830108,22.4144416 C3.37910338,22.2941299 3.21263896,22.1572987 3.06201352,22.0058182 C2.91138807,21.8546494 2.77473817,21.6875844 2.65485895,21.5077403 C2.53684313,21.3303896 2.43528742,21.1402597 2.35329748,20.9407792 C2.27286039,20.7444156 2.21012566,20.5387013 2.16850956,20.3258182 C2.12751459,20.1176104 2.10639597,19.9025455 2.10639597,19.6828052 L2.10639597,6.66857143 Z M97.9644319,22.8673247 C97.6964118,23.136 97.3777691,23.3560519 97.0283802,23.5065974 C96.6935879,23.6509091 96.3302234,23.7319481 95.9559891,23.7319481 L87.9278079,23.7319481 C87.5408403,23.7319481 87.1740595,23.6534026 86.840199,23.5134545 C86.4886361,23.366026 86.1734096,23.1503377 85.910048,22.886026 C85.642649,22.617039 85.4274254,22.2969351 85.2802162,21.945974 C85.1370444,21.6037403 85.0578496,21.2325195 85.0578496,20.8519481 L85.0578496,15.4263896 C85.0578496,15.0455065 85.1370444,14.6745974 85.2802162,14.3323636 C85.4274254,13.9810909 85.642649,13.6606753 85.9103586,13.3923117 C86.1740308,13.1276883 86.4889467,12.912 86.8398884,12.7645714 C87.1740595,12.6246234 87.5408403,12.5463896 87.9278079,12.5463896 L95.9559891,12.5463896 C96.3299129,12.5463896 96.6935879,12.6271169 97.0283802,12.7717403 C97.3777691,12.9222857 97.6964118,13.142026 97.9644319,13.411013 C98.232452,13.6803117 98.451713,14.0004156 98.6014068,14.3504416 C98.7451997,14.6864416 98.8259474,15.0511169 98.8259474,15.4263896 L98.8259474,20.8519481 C98.8259474,21.2272208 98.7451997,21.5918961 98.6014068,21.9278961 C98.4514024,22.2785455 98.2321415,22.5983377 97.9644319,22.8673247 L97.9644319,22.8673247 Z" id="Fill-1" fill="#FFD300" mask="url(#mask-2)"></path>
            </g>
        </g>
    </g>
</svg>