<?xml version="1.0" encoding="UTF-8" standalone="no"?>
<svg width="33px" height="33px" viewBox="0 0 33 33" version="1.1" xmlns="http://www.w3.org/2000/svg" xmlns:xlink="http://www.w3.org/1999/xlink">
    <!-- Generator: Sketch 3.8.1 (29687) - http://www.bohemiancoding.com/sketch -->
    <title>icon/logout</title>
    <desc>Created with Sketch.</desc>
    <defs></defs>
    <g id="Page-1" stroke="none" stroke-width="1" fill="none" fill-rule="evenodd">
        <g id="我的" transform="translate(-22.000000, -690.000000)">
            <g id="icon/logout" transform="translate(23.000000, 691.000000)">
                <circle id="Oval-3-Copy-12" stroke="#979797" cx="15.5" cy="15.5" r="15.5"></circle>
                <path d="M21,9 L11,9 C9.8955,9 9,9.8955 9,11 L9,13 L10,13 L10,11 C10,10.448 10.448,10 11,10 L21,10 C21.552,10 22,10.448 22,11 L22,21 C22,21.552 21.552,22 21,22 L11,22 C10.448,22 10,21.552 10,21 L10,19 L9,19 L9,21 C9,22.1045 9.8955,23 11,23 L21,23 C22.1045,23 23,22.1045 23,21 L23,11 C23,9.8955 22.1045,9 21,9 L21,9 Z M15.6715,19.1215 C15.4765,19.3165 15.4765,19.6335 15.6715,19.8285 C15.8665,20.024 16.1835,20.024 16.379,19.8285 L19.8285,16.379 C19.9325,16.2745 19.977,16.136 19.97,16 C19.977,15.864 19.9325,15.7255 19.8285,15.6215 L16.379,12.172 C16.1835,11.9765 15.8665,11.9765 15.6715,12.172 C15.4765,12.3665 15.4765,12.6835 15.6715,12.879 L18.293,15.5 L7.5,15.5 C7.2235,15.5 7,15.724 7,16 C7,16.2765 7.2235,16.5 7.5,16.5 L18.293,16.5 L15.6715,19.1215 L15.6715,19.1215 Z" id="Fill-57" fill="#979797"></path>
            </g>
        </g>
    </g>
</svg>