<?xml version="1.0" encoding="UTF-8" standalone="no"?>
<svg width="35px" height="35px" viewBox="0 0 35 35" version="1.1" xmlns="http://www.w3.org/2000/svg" xmlns:xlink="http://www.w3.org/1999/xlink">
    <!-- Generator: Sketch 3.8.1 (29687) - http://www.bohemiancoding.com/sketch -->
    <title>icon/my</title>
    <desc>Created with Sketch.</desc>
    <defs></defs>
    <g id="Page-1" stroke="none" stroke-width="1" fill="none" fill-rule="evenodd">
        <g id="首页" transform="translate(-316.000000, -606.000000)">
            <g id="icon/my" transform="translate(317.000000, 607.000000)">
                <path d="M22.5,22.9375 C22.5,24.490625 21.12625,25.75 19.431875,25.75 L14.318125,25.75 C12.62375,25.75 11.25,24.490625 11.25,22.9375 L11.25,21.0625 C11.25,19.73375 12.258125,18.6275 13.609375,18.333125 C14.53125,19.065 15.65625,19.5 16.875,19.5 C18.09375,19.5 19.21875,19.065 20.140625,18.333125 C21.491875,18.6275 22.5,19.73375 22.5,21.0625 L22.5,22.9375 L22.5,22.9375 Z M12.5,13.25 C12.5,10.48875 14.45875,8.25 16.875,8.25 C19.29125,8.25 21.25,10.48875 21.25,13.25 C21.25,16.01125 19.29125,18.25 16.875,18.25 C14.45875,18.25 12.5,16.01125 12.5,13.25 L12.5,13.25 Z M21.219375,17.220625 C22.01875,16.140625 22.5,14.7575 22.5,13.25 C22.5,9.79875 19.981875,7 16.875,7 C13.768125,7 11.25,9.79875 11.25,13.25 C11.25,14.7575 11.73125,16.140625 12.530625,17.220625 C11.061875,17.728125 10,19.108125 10,20.75 L10,23.25 C10,25.320625 11.679375,27 13.75,27 L20,27 C22.070625,27 23.75,25.320625 23.75,23.25 L23.75,20.75 C23.75,19.108125 22.688125,17.728125 21.219375,17.220625 L21.219375,17.220625 Z" id="Fill-176" fill="#4A4A4A"></path>
                <circle id="Oval-46-Copy-4" stroke="#4A4A4A" cx="16.5" cy="16.5" r="16.5"></circle>
            </g>
        </g>
    </g>
</svg>