<?xml version="1.0" encoding="UTF-8" standalone="no"?>
<svg width="35px" height="35px" viewBox="0 0 35 35" version="1.1" xmlns="http://www.w3.org/2000/svg" xmlns:xlink="http://www.w3.org/1999/xlink">
    <!-- Generator: Sketch 3.8.1 (29687) - http://www.bohemiancoding.com/sketch -->
    <title>icon/my_p</title>
    <desc>Created with Sketch.</desc>
    <defs></defs>
    <g id="Page-1" stroke="none" stroke-width="1" fill="none" fill-rule="evenodd">
        <g id="我的" transform="translate(-316.000000, -747.000000)">
            <g id="icon/my_p" transform="translate(317.000000, 748.000000)">
                <circle id="Oval-46-Copy-4" stroke="#4A4A4A" fill="#4A4A4A" cx="16.5" cy="16.5" r="16.5"></circle>
                <path d="M21.219375,17.220625 C22.01875,16.140625 22.5,14.7575 22.5,13.25 C22.5,9.79875 19.981875,7 16.875,7 C13.768125,7 11.25,9.79875 11.25,13.25 C11.25,14.7575 11.73125,16.140625 12.530625,17.220625 C11.061875,17.728125 10,19.108125 10,20.75 L10,23.25 C10,25.320625 11.679375,27 13.75,27 L20,27 C22.070625,27 23.75,25.320625 23.75,23.25 L23.75,20.75 C23.75,19.108125 22.688125,17.728125 21.219375,17.220625 Z" id="Fill-176" fill="#F9F9F9"></path>
            </g>
        </g>
    </g>
</svg>