<?xml version="1.0" encoding="utf-8"?>
<!-- Generator: Adobe Illustrator 19.2.1, SVG Export Plug-In . SVG Version: 6.00 Build 0)  -->
<svg version="1.1" id="圖層_1" xmlns="http://www.w3.org/2000/svg" xmlns:xlink="http://www.w3.org/1999/xlink" x="0px" y="0px"
	 viewBox="0 0 54.5 63.1" style="enable-background:new 0 0 54.5 63.1;" xml:space="preserve">
<style type="text/css">
	.st0{fill:#FFFFFF;}
</style>
<g>
	<g>
		<g>
			<g>
				<path class="st0" d="M49.5,62.3H5.1c-2.3,0-4.2-1.9-4.2-4.2V5c0-2.3,1.9-4.2,4.2-4.2h44.4c2.3,0,4.2,1.9,4.2,4.2v53.1
					C53.7,60.4,51.8,62.3,49.5,62.3z M5.1,2.4C3.7,2.4,2.5,3.6,2.5,5v53.1c0,1.4,1.1,2.5,2.5,2.5h44.4c1.4,0,2.5-1.1,2.5-2.5V5
					c0-1.4-1.1-2.5-2.5-2.5H5.1z"/>
			</g>
		</g>
		<g>
			<g>
				<path class="st0" d="M27.3,23.8c-1.4,0-2.7-0.6-3.7-1.6L1.5,4.1C1.1,3.8,1.1,3.3,1.4,2.9c0.3-0.4,0.8-0.4,1.2-0.1L24.7,21
					c1.5,1.5,3.8,1.4,5.1,0.1L52,2.8c0.4-0.3,0.9-0.2,1.2,0.1c0.3,0.4,0.2,0.9-0.1,1.2L31,22.3C30,23.2,28.7,23.8,27.3,23.8z"/>
			</g>
		</g>
	</g>
	<g>
		<g>
			<g>
				<path class="st0" d="M27.5,36c-1.2,0-2.2-0.4-3.1-1.3l-8.8-7.3c-0.4-0.3-0.4-0.8-0.1-1.2c0.3-0.4,0.8-0.4,1.2-0.1l8.9,7.3
					c1.1,1.1,2.8,1,3.8,0.1l8.5-7c0.4-0.3,0.9-0.2,1.2,0.1c0.3,0.4,0.2,0.9-0.1,1.2l-8.5,7C29.7,35.6,28.6,36,27.5,36z"/>
			</g>
		</g>
		<g>
			<g>
				<path class="st0" d="M40.1,37.8H14.5c-0.5,0-0.8-0.4-0.8-0.8c0-0.5,0.4-0.8,0.8-0.8h25.6c0.5,0,0.8,0.4,0.8,0.8
					C40.9,37.5,40.6,37.8,40.1,37.8z"/>
			</g>
		</g>
		<g>
			<g>
				<path class="st0" d="M40.1,46.6H14.5c-0.5,0-0.8-0.4-0.8-0.8c0-0.5,0.4-0.8,0.8-0.8h25.6c0.5,0,0.8,0.4,0.8,0.8
					C40.9,46.3,40.6,46.6,40.1,46.6z"/>
			</g>
		</g>
		<g>
			<g>
				<path class="st0" d="M27.3,55.7c-0.5,0-0.8-0.4-0.8-0.8V36.5c0-0.5,0.4-0.8,0.8-0.8c0.5,0,0.8,0.4,0.8,0.8v18.3
					C28.1,55.3,27.7,55.7,27.3,55.7z"/>
			</g>
		</g>
	</g>
</g>
</svg>
