<?xml version="1.0" encoding="UTF-8" standalone="no"?>
<svg width="33px" height="33px" viewBox="0 0 33 33" version="1.1" xmlns="http://www.w3.org/2000/svg" xmlns:xlink="http://www.w3.org/1999/xlink">
    <!-- Generator: Sketch 3.8.1 (29687) - http://www.bohemiancoding.com/sketch -->
    <title>icon/privacy</title>
    <desc>Created with Sketch.</desc>
    <defs></defs>
    <g id="Page-1" stroke="none" stroke-width="1" fill="none" fill-rule="evenodd">
        <g id="我的" transform="translate(-22.000000, -568.000000)">
            <g id="icon/privacy" transform="translate(23.000000, 569.000000)">
                <circle id="Oval-3-Copy-10" stroke="#979797" cx="15.5" cy="15.5" r="15.5"></circle>
                <path d="M22.9375,20.8 L19.21875,18.1333333 L19.21875,11.7333333 L22.9375,9.06666667 L22.9375,20.8 L22.9375,20.8 Z M18.15625,17.6 L16.5625,17.6 L16.5625,12.2666667 L18.15625,12.2666667 L18.15625,17.6 L18.15625,17.6 Z M15.5,17.6 L11.25,17.6 C10.193875,17.6 8.0625,17.2896 8.0625,14.9333333 C8.0625,12.5770667 10.1588125,12.232 11.25,12.2666667 L15.5,12.2666667 L15.5,17.6 L15.5,17.6 Z M12.84375,22.4 C12.84375,22.6949333 12.60575,22.9333333 12.3125,22.9333333 L11.78125,22.9333333 C11.488,22.9333333 11.25,22.6949333 11.25,22.4 L11.25,18.6666667 L12.84375,18.6666667 L12.84375,22.4 L12.84375,22.4 Z M22.9375,8 L18.15625,11.2 L11.25,11.2 C8.9029375,11.2 7,12.5770667 7,14.9333333 C7,16.9242667 8.3504375,18.3141333 10.1875,18.6666667 C10.2114063,18.8106667 10.1875,22.9333333 10.1875,22.9333333 C10.1875,23.5221333 10.6635,24 11.25,24 L12.84375,24 C13.43025,24 13.90625,23.5221333 13.90625,22.9333333 L13.90625,18.6666667 L18.15625,18.6666667 L22.9375,21.8666667 C23.524,21.8666667 24,21.3888 24,20.8 L24,9.06666667 C24,8.47786667 23.524,8 22.9375,8 L22.9375,8 Z" id="Fill-180" fill="#979797"></path>
            </g>
        </g>
    </g>
</svg>