<?xml version="1.0" encoding="UTF-8" standalone="no"?>
<svg width="35px" height="35px" viewBox="0 0 35 35" version="1.1" xmlns="http://www.w3.org/2000/svg" xmlns:xlink="http://www.w3.org/1999/xlink">
    <!-- Generator: Sketch 3.8.1 (29687) - http://www.bohemiancoding.com/sketch -->
    <title>icon/product</title>
    <desc>Created with Sketch.</desc>
    <defs></defs>
    <g id="Page-1" stroke="none" stroke-width="1" fill="none" fill-rule="evenodd">
        <g id="首页" transform="translate(-94.000000, -606.000000)" stroke="#4A4A4A">
            <g id="icon/product" transform="translate(95.000000, 607.000000)">
                <circle id="Oval-46-Copy" cx="16.5" cy="16.5" r="16.5"></circle>
                <path d="M11.2412457,7.0006982 C11.0978393,7.00906357 10.9544328,7.02579433 10.8113251,7.05955459 C10.2717584,7.20236352 9.80807751,7.56297098 9.49586972,8.02456048 C9.1839607,8.48585123 9.02352473,9.04812401 9.10807479,9.61039679 C9.16722995,9.99639914 9.35246327,10.3824015 9.68140181,10.7011821 L8.46722722,10.7011821 C7.65787708,10.7011821 7,11.3474074 7,12.1445082 L7,23.5566739 C7,24.3537747 7.65787708,25 8.46722722,25 L24.6055316,25 C25.4068151,25 26.0557293,24.3537747 26.0557293,23.5566739 L26.0557293,12.1445082 C26.0557293,11.3474074 25.4068151,10.7011821 24.6055316,10.7011821 L23.3743275,10.7011821 C23.7116314,10.3824015 23.9058276,9.99639914 23.9649828,9.61039679 C24.0489353,9.04812401 23.8804327,8.48585123 23.5688225,8.02456048 C23.2566147,7.56297098 22.7845685,7.20236352 22.2447029,7.05955459 C21.9752183,6.99233282 21.6797413,6.97560207 21.3932272,7.04282384 C21.0980489,7.10138148 20.8025719,7.23582502 20.5160577,7.45392233 L16.5278647,10.5419412 L12.5396716,7.45392233 C12.2612241,7.23582502 11.9747099,7.10138148 11.6795317,7.04282384 C11.5280586,7.00936234 11.3846521,7.0006982 11.2412457,7.0006982 L11.2412457,7.0006982 L11.2412457,7.0006982 Z M11.2496111,7.47901846 C11.5701842,7.4622877 11.9074882,7.55430684 12.2528587,7.82289517 L15.962903,10.7011821 L10.4653571,10.7011821 C10.4483275,10.6844513 10.4402609,10.676086 10.4232314,10.6677206 C9.87529928,10.3570066 9.63897741,9.96293764 9.57145687,9.54317502 C9.51260047,9.12371116 9.63897741,8.66212165 9.89203003,8.29285005 C10.1450827,7.91521307 10.5245122,7.62989399 10.9377021,7.52084534 C11.0386841,7.49604797 11.1399649,7.47901846 11.2496111,7.47901846 L11.2496111,7.47901846 L11.2496111,7.47901846 Z M21.645981,7.47901846 C21.8144836,7.4622877 21.9752183,7.47901846 22.1266914,7.52084534 C22.5398812,7.62989399 22.919012,7.91521307 23.1723634,8.29285005 C23.4251173,8.66212165 23.5598596,9.12371116 23.4926378,9.54317502 C23.4337814,9.96263888 23.18043,10.3570066 22.6405645,10.6677206 C22.623535,10.676086 22.6068042,10.6844513 22.5903722,10.7011821 L17.1014904,10.7011821 L20.8115348,7.82289517 C21.0980489,7.60509662 21.3764964,7.49604797 21.645981,7.47901846 L21.645981,7.47901846 L21.645981,7.47901846 Z M8.46722722,11.1795023 L16.2918415,11.1795023 L16.2918415,17.615763 L7.53986552,17.615763 L7.52283601,17.615763 C7.50580649,17.615763 7.48907574,17.615763 7.47234499,17.6241284 L7.47234499,12.1445082 C7.47204622,11.6076303 7.91063094,11.1795023 8.46722722,11.1795023 L8.46722722,11.1795023 L8.46722722,11.1795023 Z M16.7725519,11.1795023 L24.6055316,11.1795023 C25.1534637,11.1795023 25.5833843,11.6076303 25.5833843,12.1445082 L25.5833843,17.6241284 C25.5582882,17.615763 25.5412587,17.615763 25.5161625,17.615763 L16.7725519,17.615763 L16.7725519,11.1795023 L16.7725519,11.1795023 L16.7725519,11.1795023 Z M7.47204622,18.0773525 C7.49744112,18.0854191 7.52253724,18.0854191 7.53956676,18.0854191 L16.2918415,18.0854191 L16.2918415,24.5297464 L8.46722722,24.5297464 C7.91063094,24.5297464 7.47204622,24.0935517 7.47204622,23.5563751 L7.47204622,18.0773525 L7.47204622,18.0773525 L7.47204622,18.0773525 Z M25.5585869,18.0773525 L25.5836831,18.0773525 L25.5836831,23.5566739 C25.5836831,24.0938505 25.1537625,24.5300451 24.6058304,24.5300451 L16.7725519,24.5300451 L16.7725519,18.0854191 L25.5164613,18.0854191 C25.5334908,18.0854191 25.549624,18.0854191 25.5585869,18.0773525 L25.5585869,18.0773525 L25.5585869,18.0773525 Z" id="Shape" fill="#FFFFFF"></path>
            </g>
        </g>
    </g>
</svg>