<?xml version="1.0" encoding="UTF-8" standalone="no"?>
<svg width="23px" height="22px" viewBox="0 0 23 22" version="1.1" xmlns="http://www.w3.org/2000/svg" xmlns:xlink="http://www.w3.org/1999/xlink">
    <!-- Generator: Sketch 3.8.1 (29687) - http://www.bohemiancoding.com/sketch -->
    <title>icon/sale</title>
    <desc>Created with Sketch.</desc>
    <defs></defs>
    <g id="Page-1" stroke="none" stroke-width="1" fill="none" fill-rule="evenodd">
        <g id="分类" transform="translate(-334.000000, -145.000000)" fill="#FFFFFF">
            <path d="M354.70037,154.855043 C354.70037,155.21821 354.366091,155.75058 354.011177,156.105494 L346.94592,163.148053 L337.874301,154.081936 L344.928553,147.050383 C345.251827,146.727109 345.768378,146.313731 346.132921,146.313731 L354.041441,146.313731 C354.405296,146.313731 354.70037,146.608116 354.70037,146.970596 L354.70037,154.855043 L354.70037,154.855043 Z M344.928553,165.160605 C344.370733,165.715674 343.466942,165.715674 342.90981,165.160605 L335.845241,158.116671 C335.287422,157.561603 335.287422,156.660562 335.845241,156.105494 L336.864586,155.088213 L345.926576,164.164646 L344.928553,165.160605 L344.928553,165.160605 Z M354.70037,145 L345.473992,145 C344.745594,145 344.612845,145.317771 343.918838,146.044106 L334.836214,155.099218 C333.721262,156.210042 333.721262,158.012123 334.836214,159.122947 L341.900095,166.166882 C343.015046,167.277706 344.821941,167.277706 345.936893,166.166882 L355.020892,157.11177 C355.604849,156.528501 356.018915,156.238243 356.018915,155.511908 L356.018915,146.313731 C356.018915,145.588771 355.42808,145 354.70037,145 L354.70037,145 Z M350.478549,152.583871 C349.920729,153.138939 349.017625,153.138939 348.459806,152.583871 C347.902674,152.028115 347.902674,151.127074 348.459806,150.571318 C349.017625,150.015562 349.920729,150.015562 350.478549,150.571318 C351.036368,151.127074 351.036368,152.028115 350.478549,152.583871 L350.478549,152.583871 Z M347.451466,149.565042 C346.336514,150.676554 346.336514,152.477947 347.451466,153.589459 C348.56573,154.700972 350.373313,154.700972 351.488264,153.589459 C352.602528,152.477947 352.602528,150.676554 351.488264,149.565042 C350.373313,148.454217 348.56573,148.454217 347.451466,149.565042 L347.451466,149.565042 Z" id="icon/sale"></path>
        </g>
    </g>
</svg>