<?xml version="1.0" encoding="UTF-8" standalone="no"?>
<svg width="14px" height="14px" viewBox="0 0 14 14" version="1.1" xmlns="http://www.w3.org/2000/svg" xmlns:xlink="http://www.w3.org/1999/xlink">
    <!-- Generator: Sketch 3.8.1 (29687) - http://www.bohemiancoding.com/sketch -->
    <title>icon/search</title>
    <desc>Created with Sketch.</desc>
    <defs></defs>
    <g id="Page-1" stroke="none" stroke-width="1" fill="none" fill-rule="evenodd">
        <g id="首页" transform="translate(-339.000000, -96.000000)" fill="#4A4A4A">
            <path d="M344.886798,106.692344 C342.135835,106.692344 339.905762,104.501195 339.905762,101.793968 C339.905762,99.0867413 342.135835,96.8912195 344.886798,96.8912195 C347.63776,96.8912195 349.86827,99.0867413 349.86827,101.793968 C349.86827,104.501195 347.63776,106.692344 344.886798,106.692344 L344.886798,106.692344 Z M352.858903,109.229002 L349.246789,105.673307 C350.19235,104.645523 350.773595,103.289722 350.773595,101.793968 C350.773595,98.5925302 348.138094,95.9990154 344.886798,95.9990154 C341.635501,95.9990154 339,98.5925302 339,101.793968 C339,104.991033 341.635501,107.584548 344.886798,107.584548 C346.291582,107.584548 347.580029,107.099084 348.592069,106.289977 L352.218616,109.858794 C352.395745,110.033735 352.682212,110.033735 352.858903,109.858794 C353.036032,109.688225 353.036032,109.403944 352.858903,109.229002 L352.858903,109.229002 Z" id="icon/search"></path>
        </g>
    </g>
</svg>