<?xml version="1.0" encoding="UTF-8" standalone="no"?>
<svg width="33px" height="33px" viewBox="0 0 33 33" version="1.1" xmlns="http://www.w3.org/2000/svg" xmlns:xlink="http://www.w3.org/1999/xlink">
    <!-- Generator: Sketch 3.8.1 (29687) - http://www.bohemiancoding.com/sketch -->
    <title>icon/service</title>
    <desc>Created with Sketch.</desc>
    <defs></defs>
    <g id="Page-1" stroke="none" stroke-width="1" fill="none" fill-rule="evenodd">
        <g id="我的" transform="translate(-22.000000, -629.000000)">
            <g id="icon/service" transform="translate(23.000000, 630.000000)">
                <circle id="Oval-3-Copy-11" stroke="#979797" cx="15.5" cy="15.5" r="15.5"></circle>
                <path d="M21.875,20.15625 C21.875,20.8091563 21.4531875,21.21875 20.8125,21.21875 L10.1875,21.21875 C9.5468125,21.21875 9.125,20.8091563 9.125,20.15625 C9.125,20.15625 9.11703125,10.7302813 9.11703125,10.0571875 L21.8829687,10.0571875 C21.8829687,11.1287188 21.875,20.15625 21.875,20.15625 L21.875,20.15625 Z M7,9 L7,10.0625 L8.0625,10.0625 L8.0625,20.15625 C8.0625,21.4153125 8.935875,22.28125 10.1875,22.28125 L13.375,22.28125 L11.25,26 L12.850125,25.9930938 L14.96875,22.28125 L16.03125,22.28125 L18.149875,25.9930938 L19.75,26 L17.625,22.28125 L20.8125,22.28125 C22.064125,22.28125 22.9375,21.4153125 22.9375,20.15625 L22.9375,10.0625 L24,10.0625 L24,9 L7,9 L7,9 Z M12.3125,19.625 C12.6062812,19.625 12.84375,19.3875312 12.84375,19.09375 L12.84375,16.96875 C12.84375,16.6755 12.6062812,16.4375 12.3125,16.4375 C12.0187188,16.4375 11.78125,16.6755 11.78125,16.96875 L11.78125,19.09375 C11.78125,19.3875312 12.0187188,19.625 12.3125,19.625 L12.3125,19.625 Z M18.6875,19.625 C18.9812812,19.625 19.21875,19.3875312 19.21875,19.09375 L19.21875,14.3125 C19.21875,14.01925 18.9812812,13.78125 18.6875,13.78125 C18.3937188,13.78125 18.15625,14.01925 18.15625,14.3125 L18.15625,19.09375 C18.15625,19.3875312 18.3937188,19.625 18.6875,19.625 L18.6875,19.625 Z M15.5,19.625 C15.7937812,19.625 16.03125,19.3875312 16.03125,19.09375 L16.03125,12.71875 C16.03125,12.4255 15.7937812,12.1875 15.5,12.1875 C15.2062188,12.1875 14.96875,12.4255 14.96875,12.71875 L14.96875,19.09375 C14.96875,19.3875312 15.2062188,19.625 15.5,19.625 L15.5,19.625 Z" id="Fill-205" fill="#979797"></path>
            </g>
        </g>
    </g>
</svg>