<?xml version="1.0" encoding="UTF-8" standalone="no"?>
<svg width="26px" height="25px" viewBox="0 0 26 25" version="1.1" xmlns="http://www.w3.org/2000/svg" xmlns:xlink="http://www.w3.org/1999/xlink">
    <!-- Generator: Sketch 3.8.1 (29687) - http://www.bohemiancoding.com/sketch -->
    <title>icon/star</title>
    <desc>Created with Sketch.</desc>
    <defs></defs>
    <g id="Page-1" stroke="none" stroke-width="1" fill="none" fill-rule="evenodd">
        <g id="首页" transform="translate(-21.000000, -48.000000)" stroke="#FFFFFF" fill="#FFFFFF">
            <g id="icon/star" transform="translate(22.000000, 49.000000)">
                <path d="M5.60465362,23 C5.17652036,23 4.7873083,22.8466667 4.51485986,22.54 C3.46398731,21.4666667 4.04780539,19.8566667 4.63162348,18.17 C4.82622951,17.6333333 5.02083554,17.0966667 5.13759915,16.5983333 C5.4489688,15.4866667 5.02083554,14.1833333 4.12564781,13.57 L3.58075093,13.1866667 C1.90713908,11.9983333 0,10.6566667 0,8.97 C0,7.89666667 1.63469064,7.39833333 5.33220518,7.39833333 L6.34415653,7.39833333 L6.34415653,7.39833333 C7.31718667,7.39833333 8.32913802,6.59333333 8.71835008,5.44333333 C8.91295611,4.90666667 9.02971973,4.33166667 9.14648334,3.75666667 C9.49677419,2.07 9.84706504,0.345 11.8709677,0.345 C13.8559492,0.345 14.2062401,2.03166667 14.5565309,3.64166667 C14.6732946,4.21666667 14.7900582,4.79166667 14.9846642,5.32833333 C15.3738763,6.47833333 16.8139609,7.39833333 18.2540455,7.39833333 L18.4097303,7.39833333 C18.8378636,7.39833333 19.304918,7.36 19.7719725,7.36 C20.239027,7.32166667 20.7060814,7.32166667 21.1342147,7.32166667 C21.8737176,7.32166667 22.8467478,7.39833333 23.3527234,7.89666667 C23.6251719,8.165 23.7419355,8.51 23.7419355,8.93166667 C23.7030143,10.7716667 22.5742993,11.5 21.2509783,12.3816667 C20.9006875,12.6116667 20.5503966,12.8416667 20.2001058,13.11 C19.0713908,13.9533333 18.3708091,15.755 18.6821787,17.0583333 C18.8378636,17.6716667 19.110312,18.2466667 19.3827604,18.8216667 C20.0054997,20.1633333 20.628239,21.5816667 19.1881544,22.5783333 C18.915706,22.77 18.5654151,22.885 18.2151243,22.885 C17.2031729,22.885 16.1523004,22.08 15.0235854,21.1983333 C14.5565309,20.8533333 14.0505553,20.47 13.5835008,20.1633333 C12.6493919,19.55 11.170386,19.5883333 10.2751983,20.24 C9.92490746,20.5083333 9.5746166,20.7766667 9.18540455,21.045 C7.93992597,22.0033333 6.65552618,23 5.60465362,23 L5.60465362,23 Z M5.33220518,8.05 C1.01195135,8.05 0.661660497,8.74 0.661660497,8.97 C0.661660497,10.3116667 2.41311475,11.5766667 3.96996298,12.65 L4.51485986,13.0333333 C5.60465362,13.8383333 6.1495505,15.3716667 5.76033845,16.7516667 C5.60465362,17.2883333 5.41004759,17.8633333 5.21544157,18.4 C4.67054469,19.895 4.16456901,21.3133333 4.94299313,22.08 C5.09867795,22.2716667 5.33220518,22.3483333 5.56573242,22.3483333 C6.42199894,22.3483333 7.62855632,21.39 8.71835008,20.5466667 C9.10756214,20.24 9.45785299,19.9716667 9.80814384,19.7033333 C10.9368588,18.8983333 12.7272343,18.86 13.8948704,19.5883333 C14.4008461,19.895 14.9068218,20.2783333 15.3738763,20.6616667 C16.6971973,21.6583333 17.9426758,22.5783333 18.7600212,22.0416667 C19.6941301,21.39 19.3827604,20.5466667 18.7210999,19.09 C18.4486515,18.4766667 18.1762031,17.8633333 17.981597,17.2116667 C17.592385,15.6783333 18.4097303,13.57 19.7330513,12.6116667 C20.0833421,12.3433333 20.4725542,12.1133333 20.8228451,11.8833333 C22.1072448,11.04 23.0024326,10.465 23.0413538,8.97 C23.0413538,8.70166667 22.9635114,8.54833333 22.8467478,8.395 C22.4964569,8.05 21.6791116,8.01166667 21.0952935,8.01166667 C20.6671602,8.01166667 20.2001058,8.05 19.7719725,8.05 C19.304918,8.08833333 18.8378636,8.08833333 18.3708091,8.08833333 L18.2151243,8.08833333 C16.5025912,8.05 14.8289794,6.97666667 14.3230037,5.55833333 C14.1283977,4.98333333 14.0116341,4.37 13.8559492,3.795 C13.5056584,2.07 13.1942887,1.035 11.8320465,1.035 C10.4308831,1.035 10.1195135,2.14666667 9.76922263,3.91 C9.65245902,4.485 9.5356954,5.09833333 9.30216816,5.67333333 C8.79619249,7.05333333 7.55071391,8.05 6.34415653,8.05 L6.34415653,8.05 C5.99386568,8.05 5.68249603,8.05 5.33220518,8.05 L5.33220518,8.05 Z" id="Shape"></path>
            </g>
        </g>
    </g>
</svg>