<?xml version="1.0" encoding="UTF-8" standalone="no"?>
<svg width="33px" height="33px" viewBox="0 0 33 33" version="1.1" xmlns="http://www.w3.org/2000/svg" xmlns:xlink="http://www.w3.org/1999/xlink">
    <!-- Generator: Sketch 3.8.1 (29687) - http://www.bohemiancoding.com/sketch -->
    <title>icon/version</title>
    <desc>Created with Sketch.</desc>
    <defs></defs>
    <g id="Page-1" stroke="none" stroke-width="1" fill="none" fill-rule="evenodd">
        <g id="我的" transform="translate(-22.000000, -507.000000)">
            <g id="icon/version" transform="translate(23.000000, 508.000000)">
                <circle id="Oval-3-Copy-5" stroke="#979797" cx="15.5" cy="15.5" r="15.5"></circle>
                <path d="M19.475,14.875 L11.825,14.875 C11.522825,14.875 11.2785714,15.127 11.2785714,15.4375 C11.2785714,15.7485625 11.522825,16 11.825,16 L19.475,16 C19.777175,16 20.0214286,15.7485625 20.0214286,15.4375 C20.0214286,15.127 19.777175,14.875 19.475,14.875 L19.475,14.875 Z M22.2071429,22.75 C22.2071429,23.371 21.7175429,23.875 21.1142857,23.875 L10.1857143,23.875 C9.58245714,23.875 9.09285714,23.371 9.09285714,22.75 L9.09285714,11.5 C9.09285714,10.879 9.58245714,10.375 10.1857143,10.375 L11.825,10.375 L11.825,12.625 L19.475,12.625 L19.475,10.375 L21.1142857,10.375 C21.7175429,10.375 22.2071429,10.879 22.2071429,11.5 L22.2071429,22.75 L22.2071429,22.75 Z M12.9178571,9.25 L14.1325679,9.25 C14.1325679,8.629 14.8117786,8.125 15.65,8.125 C16.4882214,8.125 17.1674321,8.629 17.1674321,9.25 L18.3821429,9.25 L18.3821429,11.5 L12.9178571,11.5 L12.9178571,9.25 L12.9178571,9.25 Z M21.1142857,9.25 L19.475,9.25 L19.475,8.125 L18.0034679,8.125 C17.5297143,7.455625 16.6587071,7 15.65,7 C14.6412929,7 13.7702857,7.455625 13.2965321,8.125 L11.825,8.125 L11.825,9.25 L10.1857143,9.25 C8.97865357,9.25 8,10.2574375 8,11.5 L8,22.75 C8,23.9925625 8.97865357,25 10.1857143,25 L21.1142857,25 C22.3213464,25 23.3,23.9925625 23.3,22.75 L23.3,11.5 C23.3,10.2574375 22.3213464,9.25 21.1142857,9.25 L21.1142857,9.25 Z M19.475,20.5 L11.825,20.5 C11.522825,20.5 11.2785714,20.752 11.2785714,21.0625 C11.2785714,21.3735625 11.522825,21.625 11.825,21.625 L19.475,21.625 C19.777175,21.625 20.0214286,21.3735625 20.0214286,21.0625 C20.0214286,20.752 19.777175,20.5 19.475,20.5 L19.475,20.5 Z M19.475,17.6875 L11.825,17.6875 C11.522825,17.6875 11.2785714,17.9395 11.2785714,18.25 C11.2785714,18.5610625 11.522825,18.8125 11.825,18.8125 L19.475,18.8125 C19.777175,18.8125 20.0214286,18.5610625 20.0214286,18.25 C20.0214286,17.9395 19.777175,17.6875 19.475,17.6875 L19.475,17.6875 Z" id="Fill-215" fill="#979797"></path>
            </g>
        </g>
    </g>
</svg>